<?xml version="1.0" encoding="UTF-8"?>
<svg id="Layer_1" data-name="Layer 1" xmlns="http://www.w3.org/2000/svg" xmlns:xlink="http://www.w3.org/1999/xlink" viewBox="0 0 1359.24 776.06">
  <defs>
    <style>
      .cls-1 {
        clip-path: url(#clippath-20);
      }

      .cls-2 {
        clip-path: url(#clippath-11);
      }

      .cls-3 {
        clip-path: url(#clippath-16);
      }

      .cls-4 {
        stroke: #593238;
      }

      .cls-4, .cls-5, .cls-6, .cls-7, .cls-8, .cls-9, .cls-10, .cls-11 {
        fill: none;
      }

      .cls-4, .cls-7 {
        stroke-miterlimit: 10;
      }

      .cls-4, .cls-9 {
        stroke-width: 8px;
      }

      .cls-12 {
        clip-path: url(#clippath-2);
      }

      .cls-13 {
        clip-path: url(#clippath-13);
      }

      .cls-14 {
        fill: #ff981d;
      }

      .cls-14, .cls-15, .cls-5, .cls-16, .cls-17, .cls-18, .cls-19 {
        stroke-width: 0px;
      }

      .cls-20 {
        clip-path: url(#clippath-15);
      }

      .cls-21 {
        clip-path: url(#clippath-6);
      }

      .cls-15 {
        fill: #d0a585;
      }

      .cls-16 {
        fill: #36723f;
      }

      .cls-22 {
        clip-path: url(#clippath-7);
      }

      .cls-23 {
        clip-path: url(#clippath-1);
      }

      .cls-24 {
        clip-path: url(#clippath-4);
      }

      .cls-6, .cls-7 {
        stroke: #452827;
      }

      .cls-6, .cls-8, .cls-9, .cls-10, .cls-11 {
        stroke-linecap: round;
        stroke-linejoin: round;
      }

      .cls-6, .cls-11 {
        stroke-width: 9px;
      }

      .cls-25 {
        clip-path: url(#clippath-12);
      }

      .cls-17 {
        fill: #fff;
      }

      .cls-18 {
        fill: #6ab33c;
      }

      .cls-19 {
        fill: #fcab31;
      }

      .cls-8 {
        stroke-width: 7px;
      }

      .cls-8, .cls-9, .cls-10, .cls-11 {
        stroke: #000;
      }

      .cls-26 {
        clip-path: url(#clippath-9);
      }

      .cls-27 {
        clip-path: url(#clippath);
      }

      .cls-10 {
        stroke-width: 10px;
      }

      .cls-28 {
        clip-path: url(#clippath-19);
      }

      .cls-29 {
        clip-path: url(#clippath-3);
      }

      .cls-30 {
        clip-path: url(#clippath-8);
      }

      .cls-31 {
        clip-path: url(#clippath-18);
      }

      .cls-32 {
        clip-path: url(#clippath-14);
      }

      .cls-33 {
        clip-path: url(#clippath-17);
      }

      .cls-34 {
        clip-path: url(#clippath-5);
      }

      .cls-35 {
        clip-path: url(#clippath-10);
      }
    </style>
    <clipPath id="clippath">
      <path class="cls-5" d="m921.08,502.3s5.79,20.08,10.39,0c4.59-20.09,9.02-47.32,9.02-47.32l76.59,32s15.66,2.38,4.09-10.56c-11.58-12.93-57.8-39.49-57.8-39.49l40.71-36.9.75.82s96.51,25.53,93.45,142.98c-.49,18.78-3.93,34.98-9.41,48.94-.07.18-.14.36-.21.53-21.15,53.19-71.9,73.82-101.12,81.76-5.38,1.46-10.03,2.49-13.63,3.21-3.65.74-6.22,1.16-7.38,1.39-10.21,2.04-63.97,6.29-115.73-42.3,16.05-49.63-4.21-104.94-33.89-141.56,27.07-65.89,78.13-84.74,78.13-84.74l.38-.32,13.41,15.98-54.81,19.75s-16.68,9.87-1.02,11.57,55.15-4.61,55.15-4.61l12.93,48.87Z"/>
    </clipPath>
    <clipPath id="clippath-1">
      <path class="cls-5" d="m953.05,326.2c1.37,1.35,2.56,2.62,3.54,3.78-1.02-.06-2.06-.4-3.08-.93l-.46-2.85Z"/>
    </clipPath>
    <clipPath id="clippath-2">
      <path class="cls-5" d="m953.05,326.2l.46,2.85c-2-1.01-3.94-2.71-5.58-4.38l3.25-.28c.65.61,1.28,1.22,1.87,1.81Z"/>
    </clipPath>
    <clipPath id="clippath-3">
      <path class="cls-5" d="m952.74,324.25l.31,1.95c-.59-.59-1.22-1.2-1.87-1.81l1.56-.14Z"/>
    </clipPath>
    <clipPath id="clippath-4">
      <path class="cls-5" d="m951.18,324.39l-3.25.28c-1.07-1.09-2.01-2.16-2.75-3.04-1.75-2.07-3-4.41-4.68-6.51,3.83,3.12,7.56,6.32,10.68,9.27Z"/>
    </clipPath>
    <clipPath id="clippath-5">
      <polygon class="cls-5" points="936.06 367.49 926.87 413.79 892.83 378.38 936.06 367.49"/>
    </clipPath>
    <clipPath id="clippath-6">
      <path class="cls-5" d="m932.97,294.36c4.15-1.79,8.53-3.4,11.6-3.81,4.12-.55,10.44,10.31,15.42,20.47,4.04,8.24,7.18,16.03,7.53,16.9-4.19,1.72-8.66,3.33-13.41,4.84l-.6-3.71c1.02.53,2.06.87,3.08.93.28.03.55.02.83,0,4.22-.38,7.28-3.82,6.22-8.17-1.37-5.61-5.09-10.1-8.7-14.43-3.46-4.15-5.3-9.18-9.04-13.18-2.55-2.73-5.78-2.39-8.06-.65-.28.19-.54.39-.78.62-.66.09-1.23.26-1.85.53-.31-.05-.62-.09-.94-.09l-.15-.03c-.38-.12-.77-.2-1.15-.22Z"/>
    </clipPath>
    <clipPath id="clippath-7">
      <path class="cls-5" d="m934.27,294.61c.32,0,.63.04.94.09.62-.27,1.19-.44,1.85-.53.24-.23.5-.43.78-.62,2.28-1.74,5.51-2.08,8.06.65,3.74,4,5.58,9.03,9.04,13.18,3.61,4.33,7.33,8.82,8.7,14.43,1.06,4.35-2,7.79-6.22,8.17-.28.02-.55.03-.83,0-.98-1.16-2.17-2.43-3.54-3.78l-.31-1.95-1.56.14c-3.12-2.95-6.85-6.15-10.68-9.27-.15-.19-.3-.38-.46-.56-1.98-2.29-3.19-5.19-5.38-7.06-.16.01-.31.01-.47,0-1.18.02-2.35-.27-3.5-.48-.68-.19-1.29-.47-1.85-.84-.12-.1-.25-.19-.37-.27-.22-.17-.43-.35-.63-.55-.34-.43-.67-.87-1.01-1.31-.58-1-.87-2.09-.88-3.25.08-.57.16-1.14.23-1.71.19-.81.57-1.53,1.11-2.14,1.72-.83,3.67-1.73,5.68-2.59.38.02.77.1,1.15.22l.15.03Z"/>
    </clipPath>
    <clipPath id="clippath-8">
      <path class="cls-5" d="m940.5,315.12c-3.96-3.21-8.04-6.33-11.66-8.94.56.37,1.17.65,1.85.84,1.15.21,2.32.5,3.5.48.16.01.31.01.47,0,2.19,1.87,3.4,4.77,5.38,7.06.16.18.31.37.46.56Z"/>
    </clipPath>
    <clipPath id="clippath-9">
      <path class="cls-5" d="m932.97,294.36c-2.01.86-3.96,1.76-5.68,2.59.02-.02.03-.04.05-.06.45-.7,1.05-1.25,1.81-1.66.74-.47,1.54-.73,2.39-.76.48-.11.95-.15,1.43-.11Z"/>
    </clipPath>
    <clipPath id="clippath-10">
      <path class="cls-5" d="m928.47,305.91c-3.03-2.19-5.72-4-7.75-5.22l.36-.61s2.6-1.4,6.21-3.13c-.54.61-.92,1.33-1.11,2.14-.07.57-.15,1.14-.23,1.71,0,1.16.3,2.25.88,3.25.34.44.67.88,1.01,1.31.2.2.41.38.63.55Z"/>
    </clipPath>
    <clipPath id="clippath-11">
      <path class="cls-5" d="m858.28,281.45s9.87.62,23.42,3.87c11.6,2.77,25.9,7.48,39.02,15.37,2.03,1.22,4.72,3.03,7.75,5.22.12.08.25.17.37.27,3.62,2.61,7.7,5.73,11.66,8.94,1.68,2.1,2.93,4.44,4.68,6.51.74.88,1.68,1.95,2.75,3.04l-6.76.6-3.06,14.98-37.2,12.6-23.06-24.85,29.45-3.24s8.68-4.34,0-9.19-56.5-9.95-56.5-9.95l6.48-24.43,1,.26Z"/>
    </clipPath>
    <clipPath id="clippath-12">
      <polygon class="cls-5" points="873.42 359.57 843.13 367.49 843.13 332.76 873.42 359.57"/>
    </clipPath>
    <clipPath id="clippath-13">
      <path class="cls-5" d="m748.71,316.23c14.3,3.64,32.71,6.24,32.71,6.24l-23.74,40.34s-12.26,21.95,7.66,12.51c19.91-9.45,44.68-34.46,44.68-34.46l12.77,29.86s-60.72,10.14-115.89,17.76c0,0,9.36-47.26,41.81-72.25Z"/>
    </clipPath>
    <clipPath id="clippath-14">
      <path class="cls-5" d="m632.57,328s44.43,35.06,49.02,63.15l.08.67c-13.31,1.68-25.56,3.05-35.65,3.92l-49.7-51.4,35.43-17.96.82,1.62Z"/>
    </clipPath>
    <clipPath id="clippath-15">
      <polygon class="cls-5" points="620.49 399.15 589.5 402.55 567.04 357.62 573.51 354.21 620.49 399.15"/>
    </clipPath>
    <clipPath id="clippath-16">
      <path class="cls-5" d="m657.43,297.87c10.01-6.33,39.87-23.94,60.42-22.89l6.72,10.32,9.62,14.78.16,1.43-.16.02s-9.19,3.32,0,9.45c2.8,1.86,8.27,3.65,14.52,5.25-32.45,24.99-41.81,72.25-41.81,72.25-8.63,1.2-17.12,2.33-25.23,3.34l-.08-.67c-4.59-28.09-49.02-63.15-49.02-63.15l-.82-1.62.82-.42s12.43-8.17-3.23-9.03c-3.9-.21-9.63.26-16.02,1.1-5.04-2.73-9.83-4.85-14.2-6.5l.26-.55,43.41-28.09,11.23,17.19s1.24-.84,3.41-2.21Z"/>
    </clipPath>
    <clipPath id="clippath-17">
      <path class="cls-5" d="m873.42,384.51l22,26.23-.38.32s-51.06,18.85-78.13,84.74c29.68,36.62,49.94,91.93,33.89,141.56-3.5,10.86-8.74,21.44-16.01,31.5-8.33,11.54-16.87,21.36-25.52,29.68-58.68,56.49-122.26,44.19-158.31,32.08-15.28-5.14-34.33-16.57-51.25-33.61-21.93-22.09-40.28-53.6-42.19-93.03-.61-12.47.42-25.73,3.51-39.73,6.04-27.44,16.74-48.66,28.79-64.95l1.8,1.26c-1.65,2.59-1.04,5.3,8.44,5.48,18.39.34,67.75-12.25,67.75-12.25l4.08,49.36s2.73,15.66,9.7,1.02c6.98-14.64,18.9-48.37,18.9-48.37l55.15,32.37s13.95,2.72,6.12-8.51c-7.83-11.24-43.23-47.32-43.23-47.32l41.87-32.34s7.83-11.53-6.81-9.17c-14.4,2.32-45.69,18.52-46.67,19.03l56.55-45.61,67.74-13.1,3.41,11.4,9.19-1.7,2.76-10.89,26.85-5.45Z"/>
    </clipPath>
    <clipPath id="clippath-18">
      <path class="cls-5" d="m653.45,450.22c-6.21,2.15-37.99,14.44-63.63,49.08-12.05,16.29-22.75,37.51-28.79,64.95-3.09,14-4.12,27.26-3.51,39.73l-1.75.07c-.35-8.56-1.32-13.75-1.32-13.75,0,0-3.58-72-109.28-110.81l-.12-.17,22.93-15.83s5.1-10.9-3.75-11.07c-8.78-.17-58.39,26.95-59.22,27.4.74-.72,49-47.03,176.67-54.12,23.21-1.29,42.7-2.7,59.05-4.15l12.72,28.67Z"/>
    </clipPath>
    <clipPath id="clippath-19">
      <path class="cls-5" d="m445.17,479.49c105.7,38.81,109.28,110.81,109.28,110.81,0,0,.97,5.19,1.32,13.75.81,20.3-1.93,59.56-29.62,93.71-7.71,9.51-17.36,18.63-29.41,26.83-17.47,11.9-34.34,19.84-50.42,24.78-20.29,6.24-39.32,7.7-56.72,6.3-26.83-2.15-49.79-11.11-67.49-19.84-10.74-5.3-23.29-15.18-35.14-28.35-30.38-33.79-56.13-89.27-34.82-144.76,27.34-71.2,86.48-92.33,95.38-95.15,5.14,11.1,9.81,20.09,9.81,20.09l-39.15,30.98s-11.23,12.25,5.79,10.21c17.02-2.04,47.66-15.66,47.66-15.66l-4.43,51.06s1.7,18.05,10.9,5.11c9.19-12.94,19.4-51.74,19.4-51.74l53.11,30.29s10.89,2.73,4.76-8.85c-6.13-11.57-40.17-39.15-40.17-39.15l29.84-20.59.12.17Z"/>
    </clipPath>
    <clipPath id="clippath-20">
      <path class="cls-5" d="m482,418.75c-25.04,6.57-50.73,16-70.19,29.42l4.42-35.07s-2.98-13.84-11.14-3.71c.49-4.58,3.78-24.7,24.35-51.08,4.3-5.52,9.35-11.3,15.29-17.28,25.91,6.99,72.61,13.52,72.61,13.52l-34.04,51.07s-9.88,9.53-1.37,13.1c.02.01.04.02.07.03Z"/>
    </clipPath>
  </defs>
  <path class="cls-17" d="m998.7,373.79s10.53,4.75,22.39-.59c6.8-3.06,14.04-9.42,19.99-21.88,2.81-5.88,6.13-10.98,9.7-15.4,8.91-11,19.39-17.75,27.43-21.7,7.52-3.71,12.92-4.96,12.92-4.96v18.74c8.55-7.11,16.44-13.17,23.7-18.31,18.92-13.41,33.61-20.66,44.67-24.45,19.96-6.82,28.14-2.35,28.14-2.35,6.12,9.7.51,45.11.51,45.11,4.78-4.58,11.61-8.26,18.89-11.17,17.6-7.04,37.79-9.6,37.79-9.6,18.38-12.93,51.06-7.15,51.06-7.15l3.58,19.07c37.27-2.56,54.64,8.85,54.64,8.85,3.06,46.13-50.56,79.49-50.56,79.49l19.41,19.91c-13.28,42.9-122.05,76.6-122.05,76.6,55.15,12.25,73.02,32.68,73.02,32.68-1.53,31.66-58.21,37.79-58.21,37.79l3.58,10.72c-26.04,10.72-73.02,0-73.02,0-9.2,14.81-47.23,12.35-47.23,12.35h0s-10.39-4.24-10.39-4.24c.07-.17.14-.35.21-.53,5.48-13.96,8.92-30.16,9.41-48.94,3.06-117.45-93.45-142.98-93.45-142.98l-.75-.82,13-11.78s9.02-15.66-12.17-6.46c-4.64,2.01-9.81,4.87-15.05,8.11l-.35-1.31,9.19-14.8Z"/>
  <path class="cls-17" d="m1122.79,621.96c82.72,65.87,82.21,120.51,82.21,120.51-34.21,10.72-72.51-17.88-72.51-17.88v17.88c-44.94-4.09-93.45-35.24-93.45-35.24l-7.66,6.64-44.79-37.68.95-1.13c29.22-7.94,79.97-28.57,101.12-81.76l10.39,4.25,24.76,10.11-1.02,14.3Z"/>
  <path class="cls-15" d="m1078.19,314.09s.01.09.02.13c0-.03,0-.07-.02-.13Z"/>
  <path class="cls-15" d="m1077.91,311.93c.08.51.14,1.02.2,1.52-.06-.45-.13-1.02-.2-1.52Z"/>
  <path class="cls-15" d="m1077.91,311.9c-.02-.17-.05-.35-.08-.52-.01-.08-.02-.15-.03-.23,0-.06,0-.1,0-.14.03.18.07.51.12.89Z"/>
  <path class="cls-15" d="m1077.78,310.96c0-.12,0-.1,0,0h0Z"/>
  <path class="cls-17" d="m1054.32,246.37c12.03,23.35,20.7,46.11,23.48,64.78.01.08.02.15.03.23.03.17.06.35.08.52v.03c.07.5.14,1.07.2,1.52.03.21.06.43.08.64.01.06.01.1.02.13-8.04,3.95-18.52,10.7-27.43,21.7l-1.53-.43c-2.34-13.09-5.03-25.25-8.04-36.58,7.78-14.41,12.07-31.71,13.11-52.54Z"/>
  <path class="cls-15" d="m1068.33,82.84c.18.37.37.74.57,1.09-.16.41-.35.81-.57,1.19v-2.28Z"/>
  <path class="cls-15" d="m1068.33,85.12v.23c-.05-.01-.09-.01-.13-.01.05-.07.09-.14.13-.22Z"/>
  <path class="cls-17" d="m1077.78,310.96c0-.1,0-.12,0,0h0Zm-104.52-168.26c.39-.15,10.4-3.76,25.36-1.77,31.28,4.16,84.22,32.79,116.21,168.76-7.26,5.14-15.15,11.2-23.7,18.31v-18.74s-5.4,1.25-12.92,4.96c0-.04,0-.09-.02-.13-.02-.21-.05-.43-.08-.64-.06-.5-.12-1.01-.2-1.52v-.03c-.05-.38-.09-.71-.12-.89,0,.04,0,.08,0,.14-2.78-18.67-11.45-41.43-23.48-64.78.37-7.5.33-15.46-.13-23.9,0,0-6.85-12.59-18.05-7.89-10.31-16.43-21.73-32.37-33.35-46.58-10.25-12.53-20.33-20.43-29.53-25.3Z"/>
  <path class="cls-15" d="m1058.52,71.15c-1.39.52-2.67,1.06-3.85,1.62,1.17-.86,2.49-1.39,3.85-1.62Z"/>
  <path class="cls-15" d="m1049.77,75.52c1.4-.94,3.02-1.86,4.9-2.75-.22.16-.44.33-.65.52-.19.11-.37.22-.56.35-.51.33-1,.71-1.48,1.1-.18.06-.35.12-.5.17-.58.18-1.15.38-1.71.61Z"/>
  <g class="cls-27">
    <rect class="cls-14" x="915.57" y="321.48" width="297.19" height="321.7"/>
    <rect class="cls-14" x="915.57" y="643.18" width="297.19" height="321.7"/>
    <rect class="cls-14" x="618.38" y="321.48" width="297.19" height="321.7"/>
    <rect class="cls-14" x="618.38" y="643.18" width="297.19" height="321.7"/>
  </g>
  <path class="cls-17" d="m1020.09,72.7c-8.55-8.34-14.44-26.65-5.39-47.68,14.64-34.04,56.51-17.51,56.51-17.51l.44,1.71c-7.76,2.11-14.73,6.06-20.09,11.11-1.79,1.06-3.5,2.22-5.01,3.87-2.15,2.36-3.2,4.94-3.65,7.74-1.09.8-2.1,1.89-2.96,3.29-2.45,4.02-2.96,9.81-2.72,14.61-1.99,11.12-.83,20.38,0,24.8l-1.11.42c-4.43,4.17-10.74,2.81-16.03-2.36Z"/>
  <path class="cls-15" d="m1049.77,75.52c-1.47.98-2.69,1.98-3.71,2.96-.24-.1-.47-.21-.7-.33.57-.59,1.22-1.09,1.94-1.49.8-.43,1.62-.81,2.47-1.14Z"/>
  <path class="cls-17" d="m1041.08,351.32c-5.95,12.46-13.19,18.82-19.99,21.88-1.99-15.26-4.64-29.61-7.84-43.1,12-8.53,21.27-18.79,27.96-31.19,3.01,11.33,5.7,23.49,8.04,36.58l1.53.43c-3.57,4.42-6.89,9.52-9.7,15.4Z"/>
  <path class="cls-15" d="m1046.55,24.2c1.51-1.65,3.22-2.81,5.01-3.87-3.02,2.85-5.52,6.05-7.37,9.46-.35.65-.69,1.3-1.01,1.95-.1.07-.19.13-.28.2.45-2.8,1.5-5.38,3.65-7.74Z"/>
  <path class="cls-15" d="m1045.36,78.15c.23.12.46.23.7.33-1.32,1.26-2.28,2.5-3,3.64.44-1.49,1.23-2.87,2.3-3.97Z"/>
  <path class="cls-15" d="m1042.9,31.94c.09-.07.18-.13.28-.2-.12.24-.24.49-.35.73,0-.18.04-.36.07-.53Z"/>
  <path class="cls-15" d="m1042.9,31.94c-.03.17-.06.35-.07.53-2.91,6-4.64,11.91-5.61,17.37-.24-4.8.27-10.59,2.72-14.61.86-1.4,1.87-2.49,2.96-3.29Z"/>
  <path class="cls-17" d="m846.58,121.5c.81-.41,37.21-18.86,84.89,16.19,2.63,1.93,5.3,4.03,8,6.31,37.43,31.56,68.28,63.66,89.49,117.33-2.62,13.53-9.05,28.68-23.01,42.35-34.16-107.62-106.32-154.28-159.37-182.18Z"/>
  <path class="cls-17" d="m985.38,47.57c7.51-33.84,29.32-22.55,29.32-22.55-9.05,21.03-3.16,39.34,5.39,47.68-3,6.68-15.1,13.57-24.59,11.55-7.96-1.69-14.08-9.63-11.44-29.2.37-2.71.81-5.2,1.32-7.48Z"/>
  <path class="cls-17" d="m951.38,417.87s16.51-60.6,53.53-82.38c2.91-1.72,5.69-3.51,8.34-5.39,3.2,13.49,5.85,27.84,7.84,43.1-11.86,5.34-22.39.59-22.39.59l-9.19,14.8.35,1.31c-18.74,11.56-38.48,27.97-38.48,27.97Z"/>
  <path class="cls-17" d="m846.58,121.5c53.05,27.9,125.21,74.56,159.37,182.18-9.19,9.02-21.65,17.39-38.43,24.24-.35-.87-3.49-8.66-7.53-16.9l2.63-.04s11.23-62.64-52.77-62.98c-3.11-.02-6.08-.09-8.91-.23-14.02-.66-24.78-2.73-33.25-5.82l4.37-16.46s-.31-14.7-10.47-3.62c-2.2,2.4-5.13,6.9-8.36,12.47-13.22-9.78-17.93-23.47-25.52-36.47-5.82.56-11.23.34-16.22-.47-33.4-5.33-48.36-36.59-48.36-36.59l-.62-1.05c.88-.51,1.77-1.04,2.66-1.6,15.9-9.89,31.8-17.54,46.35-21.21l-.39-1.54c-8.85-37.35-54.85-36.7-54.85-36.7,16.14-3.07,40.77-2.31,73.4,14.14,5.34,2.69,11,5.56,16.9,8.65Z"/>
  <path class="cls-17" d="m931.47,137.69s17.96-7.61,41.78,5.01h0c9.2,4.87,19.28,12.77,29.53,25.3,11.62,14.21,23.04,30.15,33.35,46.58-2.71,1.14-5.66,3.28-8.84,6.86,0,0,5.93,17.78,1.66,39.89-21.21-53.67-52.06-85.77-89.49-117.33-2.7-2.28-5.37-4.38-8-6.31Z"/>
  <path class="cls-17" d="m995.3,85.24c-8.85,14.6-23.49,26.93-29.96,8.2-6.47-18.72,18.1-46.29,18.1-46.29l1.94.42c-.51,2.28-.95,4.77-1.32,7.48-2.64,19.57,3.48,27.51,11.44,29.2l-.2.99Z"/>
  <path class="cls-17" d="m850.8,637.36c51.76,48.59,105.52,44.34,115.73,42.3,1.16-.23,3.73-.65,7.38-1.39l.28,1.39c10.72,10.72,9.19,38.81,9.19,38.81-45.45,16.85-96-16.34-96-16.34,2.55,20.93-5.62,28.08-5.62,28.08-36.25,4.6-68.93-31.15-70.46-31.66h-2.03c8.65-8.33,17.19-18.15,25.52-29.69,7.27-10.06,12.51-20.64,16.01-31.5Z"/>
  <g class="cls-23">
    <rect class="cls-18" x="915.57" y="321.48" width="297.19" height="321.7"/>
  </g>
  <g class="cls-12">
    <rect class="cls-18" x="915.57" y="321.48" width="297.19" height="321.7"/>
  </g>
  <g class="cls-29">
    <rect class="cls-18" x="915.57" y="321.48" width="297.19" height="321.7"/>
  </g>
  <g class="cls-24">
    <rect class="cls-18" x="915.57" y="-.22" width="297.19" height="321.7"/>
    <rect class="cls-18" x="915.57" y="321.48" width="297.19" height="321.7"/>
  </g>
  <g class="cls-34">
    <rect class="cls-14" x="678" y="283.34" width="297.19" height="321.7"/>
  </g>
  <g class="cls-21">
    <rect class="cls-14" x="915.57" y="-.22" width="297.19" height="321.7"/>
    <rect class="cls-14" x="915.57" y="321.48" width="297.19" height="321.7"/>
  </g>
  <g class="cls-22">
    <rect class="cls-18" x="915.57" y="-.22" width="297.19" height="321.7"/>
    <rect class="cls-18" x="915.57" y="321.48" width="297.19" height="321.7"/>
  </g>
  <g class="cls-30">
    <rect class="cls-14" x="915.57" y="-.22" width="297.19" height="321.7"/>
  </g>
  <g class="cls-26">
    <rect class="cls-18" x="915.57" y="-.22" width="297.19" height="321.7"/>
  </g>
  <g class="cls-35">
    <rect class="cls-14" x="915.57" y="-.22" width="297.19" height="321.7"/>
  </g>
  <g class="cls-2">
    <rect class="cls-14" x="915.57" y="-.22" width="297.19" height="321.7"/>
    <rect class="cls-14" x="915.57" y="321.48" width="297.19" height="321.7"/>
    <rect class="cls-14" x="618.38" y="-.22" width="297.19" height="321.7"/>
    <rect class="cls-14" x="618.38" y="321.48" width="297.19" height="321.7"/>
  </g>
  <path class="cls-17" d="m873.49,255.75c10.31.46,19.85-1.23,27.42-7.42l.03-.56c2.83.14,5.8.21,8.91.23,64,.34,52.77,62.98,52.77,62.98l-2.63.04c-4.98-10.16-11.3-21.02-15.42-20.47-3.07.41-7.45,2.02-11.6,3.81-.48-.04-.95,0-1.43.11-.85.03-1.65.29-2.39.76-.76.41-1.36.96-1.81,1.66-.02.02-.03.04-.05.06-3.61,1.73-6.21,3.13-6.21,3.13l-.36.61c-13.12-7.89-27.42-12.6-39.02-15.37l.58-2.43c-1.03-7.15-8.86-25.79-8.86-25.79l.07-1.35Z"/>
  <path class="cls-17" d="m900.91,248.33c-7.57,6.19-17.11,7.88-27.42,7.42-3.02-.13-6.1-.45-9.22-.89l3.42-12.91c8.47,3.09,19.23,5.16,33.25,5.82l-.03.56Z"/>
  <path class="cls-17" d="m864.27,254.86c3.12.44,6.2.76,9.22.89l-.07,1.35s7.83,18.64,8.86,25.79l-.58,2.43c-13.55-3.25-23.42-3.87-23.42-3.87l-1-.26,6.99-26.33Z"/>
  <g class="cls-25">
    <rect class="cls-14" x="618.38" y="321.48" width="297.19" height="321.7"/>
  </g>
  <path class="cls-17" d="m813.3,245.15c6.28.7,12.7,1.94,18.93,3.18,3.89.78,7.91,1.69,11.97,2.6-9.41,18.16-18.35,37.58-18.35,37.58l-12.55-43.36Z"/>
  <path class="cls-17" d="m811.52,136.95c-14.55,3.67-30.45,11.32-46.35,21.21-.89.56-1.78,1.09-2.66,1.6-9.15,5.37-17.53,8.53-25.1,10.11-32.66,6.86-50.2-15.49-50.2-15.49,19.4-23.03,34.85-38.96,46.34-46.85l.13.13s3.2-2.55,9.5-5.13l.09-.03c3.42-1.39,7.77-2.8,13.01-3.79,0,0,46-.65,54.85,36.7l.39,1.54Z"/>
  <g class="cls-13">
    <rect class="cls-14" x="618.38" y="-.22" width="297.19" height="321.7"/>
    <rect class="cls-14" x="618.38" y="321.48" width="297.19" height="321.7"/>
  </g>
  <path class="cls-17" d="m797,274.98c-6.54-1-23.2-15.43-23.72-15.88,5.67-8.81,13.73-12.76,22.89-14.04.07,9.4.58,20.59,1.11,29.9l-.28.02Z"/>
  <path class="cls-17" d="m811.49,197.4l-.36,2.26c-106.06,2.16-139.05,50.95-149.28,79.71-.02.03-.03.06-.04.1-3.16,7.77-4.42,13.94-4.76,17.07-.11,1.01.49-.92.85-2.13-.22,1.39-.37,2.55-.47,3.46-2.17,1.37-3.41,2.21-3.41,2.21l-11.23-17.19-43.41,28.09-.26.55c-5.04-1.91-9.5-3.19-13.08-4.04l.07-.26s.01-.03.02-.08c.76-2.79,22.63-80.46,110.37-120.96,12.45-5.38,26.25-10.02,41.55-13.63l-.24-1.01-.4-1.68c7.57-1.58,15.95-4.74,25.1-10.11l.62,1.05s14.96,31.26,48.36,36.59Z"/>
  <path class="cls-15" d="m737.81,171.55l.24,1.01c-15.3,3.61-29.1,8.25-41.55,13.63,12.41-5.73,26.14-10.71,41.31-14.64Z"/>
  <path class="cls-17" d="m733.55,107.53c-11.49,7.89-26.94,23.82-46.34,46.85-25.53,30.3-80.68,27.58-80.68,27.58l-2.28-1.85c.65-1.04,1.3-2.13,1.94-3.26,23.83-42.21,30.47-66.04,30.47-66.04,0,0,51.47-49.1,96.89-3.28Z"/>
  <path class="cls-17" d="m773.28,259.1c.52.45,17.18,14.88,23.72,15.88l.28-.02c.61,10.86,1.25,19.17,1.25,19.17l-64.18,7.38-.16-1.43-9.62-14.78.17-.11c1.79-.26,34.47,2.3,46.22-21.96.72-1.48,1.49-2.86,2.32-4.13Z"/>
  <path class="cls-16" d="m702.47,413.81l4.43-6.83v5.96c-1.37.28-2.85.57-4.43.87Z"/>
  <path class="cls-15" d="m661.85,279.37c10.23-28.76,43.22-77.55,149.28-79.71v.05c-102.73,3.91-138,51.93-149.28,79.66Z"/>
  <g class="cls-32">
    <rect class="cls-14" x="618.38" y="321.48" width="297.19" height="321.7"/>
    <rect class="cls-14" x="321.19" y="321.48" width="297.19" height="321.7"/>
  </g>
  <path class="cls-17" d="m797,228c-.68,3.45-.89,9.71-.83,17.06-9.16,1.28-17.22,5.23-22.89,14.04-.83,1.27-1.6,2.65-2.32,4.13-11.75,24.26-44.43,21.7-46.22,21.96l-.17.11-6.72-10.32c-20.55-1.05-50.41,16.56-60.42,22.89.1-.91.25-2.07.47-3.46.6-3.65,1.74-8.84,3.91-14.94,0-.04.02-.07.04-.1,11.28-27.73,46.55-75.75,149.28-79.66v-.05l.36-2.26c4.99.81,10.4,1.03,16.22.47,7.59,13,12.3,26.69,25.52,36.47-2.87,4.93-5.98,10.69-9.03,16.59-4.06-.91-8.08-1.82-11.97-2.6-6.23-1.24-12.65-2.48-18.93-3.18l-5.58-19.27s-8.17-10.9-10.72,2.12Z"/>
  <path class="cls-15" d="m657.05,296.54c.34-3.13,1.6-9.3,4.76-17.07-2.17,6.1-3.31,11.29-3.91,14.94-.36,1.21-.96,3.14-.85,2.13Z"/>
  <path class="cls-19" d="m655.06,420.2c21.87-2.21,37-4.44,47.41-6.39l-23.43,36.06-23.98-29.67Z"/>
  <path class="cls-16" d="m640.73,421.55l-1.18-2.66,13.62-1.02,1.89,2.33c-4.48.45-9.26.9-14.33,1.35Z"/>
  <g class="cls-20">
    <rect class="cls-14" x="618.38" y="321.48" width="297.19" height="321.7"/>
    <rect class="cls-14" x="321.19" y="321.48" width="297.19" height="321.7"/>
  </g>
  <path class="cls-17" d="m553.42,144s18.39-49.02,83.24-33.19c0,0-6.64,23.83-30.47,66.04-.64,1.13-1.29,2.22-1.94,3.26-4.6,7.33-9.63,12.66-14.75,16.48-.01.01-.02.01-.03.03-21.45,15.98-44.54,5.58-44.54,5.58,5.21-13.18,8.67-31.84,8.49-58.2Z"/>
  <path class="cls-19" d="m586.04,307.49c3.58.85,8.04,2.13,13.08,4.04,4.37,1.65,9.16,3.77,14.2,6.5-19.26,2.51-44.58,8.27-44.58,8.27l7.87-20.55.3.12s3.45.27,9.13,1.62Z"/>
  <g class="cls-3">
    <rect class="cls-18" x="618.38" y="-.22" width="297.19" height="321.7"/>
    <rect class="cls-18" x="618.38" y="321.48" width="297.19" height="321.7"/>
    <rect class="cls-18" x="321.19" y="-.22" width="297.19" height="321.7"/>
    <rect class="cls-18" x="321.19" y="321.48" width="297.19" height="321.7"/>
  </g>
  <path class="cls-19" d="m596.66,495.8s-3.51,2.32-5.04,4.76l-1.8-1.26c25.64-34.64,57.42-46.93,63.63-49.08l7.55,17.01-64.34,28.57Z"/>
  <g class="cls-33">
    <rect class="cls-14" x="618.38" y="321.48" width="297.19" height="321.7"/>
    <rect class="cls-14" x="618.38" y="643.18" width="297.19" height="321.7"/>
    <rect class="cls-14" x="321.19" y="321.48" width="297.19" height="321.7"/>
    <rect class="cls-14" x="321.19" y="643.18" width="297.19" height="321.7"/>
  </g>
  <path class="cls-15" d="m589.5,196.59l-.03.03s.02-.02.03-.03Z"/>
  <path class="cls-15" d="m586.13,307.15c.63-2.78,19.29-81.62,110.37-120.96-87.74,40.5-109.61,118.17-110.37,120.96Z"/>
  <path class="cls-17" d="m737.81,171.55c-15.17,3.93-28.9,8.91-41.31,14.64-91.08,39.34-109.74,118.18-110.37,120.96-.01.05-.02.08-.02.08l-.07.26c-5.68-1.35-9.13-1.62-9.13-1.62l-.3-.12,16.64-43.45s1.03-13.96-8.85-4.94c-9.87,9.02-37.78,56.17-37.78,56.17l-5.53-13.42.08-.03c.33-58.97,46.84-102.12,48.3-103.46l.03-.03c5.12-3.82,10.15-9.15,14.75-16.48l2.28,1.85s55.15,2.72,80.68-27.58c0,0,17.54,22.35,50.2,15.49l.4,1.68Z"/>
  <path class="cls-17" d="m541.09,300.11l-17.62-42.75s-2.67-4.6-5.45-6.36c4.71-14.38,9.96-24.53,10.26-25.1,6.04-4.62,12.03-12.01,16.65-23.7,0,0,23.09,10.4,44.54-5.58-1.46,1.34-47.97,44.49-48.3,103.46l-.08.03Z"/>
  <path class="cls-17" d="m599.71,697.01l-1.63,1.95c-19.41,54.13-50.05,63.32-50.05,63.32-26.04-20.94-19.91-63.32-19.91-63.32l-1.97-1.2c27.69-34.15,30.43-73.41,29.62-93.71l1.75-.07c1.91,39.43,20.26,70.94,42.19,93.03Z"/>
  <g class="cls-31">
    <rect class="cls-14" x="618.38" y="321.48" width="297.19" height="321.7"/>
    <rect class="cls-14" x="321.19" y="321.48" width="297.19" height="321.7"/>
  </g>
  <g class="cls-28">
    <rect class="cls-14" x="321.19" y="321.48" width="297.19" height="321.7"/>
    <rect class="cls-14" x="321.19" y="643.18" width="297.19" height="321.7"/>
    <rect class="cls-14" x="24" y="321.48" width="297.19" height="321.7"/>
    <rect class="cls-14" x="24" y="643.18" width="297.19" height="321.7"/>
  </g>
  <path class="cls-17" d="m528.28,225.9c-13.15,10.08-26.53,7.12-26.53,7.12h-.09c-.57-11.84-4.1-25.39-12.27-40.64,3.51-10.45,19.21-47.94,64.03-48.38.18,26.36-3.28,45.02-8.49,58.2-4.62,11.69-10.61,19.08-16.65,23.7Z"/>
  <path class="cls-19" d="m519.4,324.59l-55.1,2.53c5.42-3.29,25.51-14.86,47.53-20.09,1.51-.36,3.03-.68,4.55-.98,1.6,10.6,3.02,18.54,3.02,18.54Z"/>
  <path class="cls-16" d="m518.02,251c-2.17,6.62-4.23,14.13-5.64,22.02-.49-6.41-.62-11.99-.15-15.66.94-7.3,3.41-7.87,5.79-6.36Z"/>
  <path class="cls-19" d="m570.79,404.25s-39.53,2.33-82.7,12.94c16.36-8.44,54.44-45.28,54.44-45.28l28.26,32.34Z"/>
  <path class="cls-16" d="m488.09,417.19c-2.73,1.41-4.85,2.03-6.09,1.56,2.04-.54,4.07-1.06,6.09-1.56Z"/>
  <g class="cls-1">
    <rect class="cls-14" x="321.19" y="321.48" width="297.19" height="321.7"/>
  </g>
  <path class="cls-17" d="m469.76,293.52c-1.53-13.84-6.71-29.62-21.53-36.16,0,0-11.74-35.74,40.34-62.3,0,0,.25-.98.82-2.68,8.17,15.25,11.7,28.8,12.27,40.64,1.93,39.86-29.6,60.25-29.6,60.25l-2.3.25Z"/>
  <path class="cls-16" d="m850.8,305.62s47.82,5.1,56.5,9.95,0,9.19,0,9.19l-29.45,3.24,23.06,24.85,37.2-12.6,3.06-14.98,6.76-.6c1.64,1.67,3.58,3.37,5.58,4.38l.6,3.71c4.75-1.51,9.22-3.12,13.41-4.84,16.78-6.85,29.24-15.22,38.43-24.24,13.96-13.67,20.39-28.82,23.01-42.35,4.27-22.11-1.66-39.89-1.66-39.89,3.18-3.58,6.13-5.72,8.84-6.86,11.2-4.7,18.05,7.89,18.05,7.89.46,8.44.5,16.4.13,23.9-1.04,20.83-5.33,38.13-13.11,52.54-6.69,12.4-15.96,22.66-27.96,31.19-2.65,1.88-5.43,3.67-8.34,5.39-37.02,21.78-53.53,82.38-53.53,82.38,0,0,19.74-16.41,38.48-27.97,5.24-3.24,10.41-6.1,15.05-8.11,21.19-9.2,12.17,6.46,12.17,6.46l-13,11.78-40.71,36.9s46.22,26.56,57.8,39.49c11.57,12.94-4.09,10.56-4.09,10.56l-76.59-32s-4.43,27.23-9.02,47.32c-4.6,20.08-10.39,0-10.39,0l-12.93-48.87s-39.49,6.31-55.15,4.61,1.02-11.57,1.02-11.57l54.81-19.75-13.41-15.98-22-26.23-26.85,5.45-2.76,10.89-9.19,1.7-3.41-11.4-67.74,13.1-56.55,45.61c.98-.51,32.27-16.71,46.67-19.03,14.64-2.36,6.81,9.17,6.81,9.17l-41.87,32.34s35.4,36.08,43.23,47.32c7.83,11.23-6.12,8.51-6.12,8.51l-55.15-32.37s-11.92,33.73-18.9,48.37c-6.97,14.64-9.7-1.02-9.7-1.02l-4.08-49.36s-49.36,12.59-67.75,12.25c-9.48-.18-10.09-2.89-8.44-5.48,1.53-2.44,5.04-4.76,5.04-4.76l64.34-28.57-7.55-17.01-12.72-28.67c5.07-.45,9.85-.9,14.33-1.35l23.98,29.67,23.43-36.06c1.58-.3,3.06-.59,4.43-.87v10.04l17.72-15.29c-.42.28-3.88,2.38-17.72,5.25v-5.96l-4.43,6.83c-10.41,1.95-25.54,4.18-47.41,6.39l-1.89-2.33-13.62,1.02,1.18,2.66c-16.35,1.45-35.84,2.86-59.05,4.15-127.67,7.09-175.93,53.4-176.67,54.12.83-.45,50.44-27.57,59.22-27.4,8.85.17,3.75,11.07,3.75,11.07l-22.93,15.83-29.84,20.59s34.04,27.58,40.17,39.15c6.13,11.58-4.76,8.85-4.76,8.85l-53.11-30.29s-10.21,38.8-19.4,51.74c-9.2,12.94-10.9-5.11-10.9-5.11l4.43-51.06s-30.64,13.62-47.66,15.66c-17.02,2.04-5.79-10.21-5.79-10.21l39.15-30.98s-4.67-8.99-9.81-20.09c-2.4-5.18-4.9-10.82-7.09-16.22-2.8-6.94-5.07-13.48-5.91-18.16-2.89-16.11,9.53-6.47,9.53-6.47l36.43,48.34s10.89-42.55,21.44-60.93c1.13-1.97,2.18-3.53,3.16-4.74,8.16-10.13,11.14,3.71,11.14,3.71l-4.42,35.07c19.46-13.42,45.15-22.85,70.19-29.42,1.24.47,3.36-.15,6.09-1.56,43.17-10.61,82.7-12.94,82.7-12.94l-28.26-32.34s-38.08,36.84-54.44,45.28c-2.02.5-4.05,1.02-6.09,1.56-.03,0-.05-.02-.07-.03-8.51-3.57,1.37-13.1,1.37-13.1l34.04-51.07s-46.7-6.53-72.61-13.52c-.54-.15-1.08-.29-1.6-.44-25.54-7.15,2.04-12.59,2.04-12.59l19.13-.88,55.1-2.53s-1.42-7.94-3.02-18.54c-1.53-10.12-3.23-22.66-4-33.03,1.41-7.89,3.47-15.4,5.64-22.02,2.78,1.76,5.45,6.36,5.45,6.36l17.62,42.75,5.53,13.42s27.91-47.15,37.78-56.17c9.88-9.02,8.85,4.94,8.85,4.94l-16.64,43.45-7.87,20.55s25.32-5.76,44.58-8.27c6.39-.84,12.12-1.31,16.02-1.1,15.66.86,3.23,9.03,3.23,9.03l-.82.42-35.43,17.96,49.7,51.4c10.09-.87,22.34-2.24,35.65-3.92,8.11-1.01,16.6-2.14,25.23-3.34,55.17-7.62,115.89-17.76,115.89-17.76l-12.77-29.86s-24.77,25.01-44.68,34.46c-19.92,9.44-7.66-12.51-7.66-12.51l23.74-40.34s-18.41-2.6-32.71-6.24c-6.25-1.6-11.72-3.39-14.52-5.25-9.19-6.13,0-9.45,0-9.45l.16-.02,64.18-7.38s-.64-8.31-1.25-19.17c-.53-9.31-1.04-20.5-1.11-29.9-.06-7.35.15-13.61.83-17.06,2.55-13.02,10.72-2.12,10.72-2.12l5.58,19.27,12.55,43.36s8.94-19.42,18.35-37.58c3.05-5.9,6.16-11.66,9.03-16.59,3.23-5.57,6.16-10.07,8.36-12.47,10.16-11.08,10.47,3.62,10.47,3.62l-4.37,16.46-3.42,12.91-6.99,26.33-6.48,24.43Zm76.07,108.17l9.19-46.3-43.23,10.89,34.04,35.41Zm-83.74-46.3l30.29-7.92-30.29-26.81v34.73Zm-253.63,35.06l30.99-3.4-46.98-44.94-6.47,3.41,22.46,44.93Z"/>
  <path class="cls-17" d="m501.75,233.02s13.38,2.96,26.53-7.12c-.3.57-5.55,10.72-10.26,25.1-2.38-1.51-4.85-.94-5.79,6.36-.47,3.67-.34,9.25.15,15.66-1.92,10.7-2.64,22.09-.83,32.85l.28,1.16c-22.02,5.23-42.11,16.8-47.53,20.09l-19.13.88s-27.58,5.44-2.04,12.59c.52.15,1.06.29,1.6.44-5.94,5.98-10.99,11.76-15.29,17.28l-21.04-21.85c.06-1.94,2.18-59.53,39.83-79.1,14.82,6.54,20,22.32,21.53,36.16l2.3-.25s31.53-20.39,29.6-60.25h.09Z"/>
  <path class="cls-17" d="m446.7,750.64c-25.53,16.85-48.51,20.42-48.51,20.42l-8.68-14.3.09-1.09c17.4,1.4,36.43-.06,56.72-6.3l.38,1.27Z"/>
  <path class="cls-17" d="m247.04,271.15c31.15-7.66,66.38,28.93,66.38,28.93l3.58-14.89c60.76,25.79,81.19,55.4,81.19,55.4l6.81-7.66,3.4,3.53,21.04,21.85c-20.57,26.38-23.86,46.5-24.35,51.08-.98,1.21-2.03,2.77-3.16,4.74-10.55,18.38-21.44,60.93-21.44,60.93l-36.43-48.34s-12.42-9.64-9.53,6.47c.84,4.68,3.11,11.22,5.91,18.16l-26.17-17.81h-.01s-21.77-14.82-21.77-14.82l3.57-14.3c-65.87-82.21-49.02-133.27-49.02-133.27Z"/>
  <path class="cls-17" d="m5,635.23c12.25-43.91,70.47-65.36,70.47-65.36-11.24-5.62-18.9-19.4-18.9-19.4,20.94-38.81,138.39-48.51,138.39-48.51-37.28-16.86-66.9-49.54-66.9-49.54,27.07-33.7,66.9-21.59,66.9-21.59l3.06-12.11c38.81,0,70.47,17.36,70.47,17.36l6.13-8.17c15.61-1.51,38.98,5.43,39.64,5.62h.01s26.17,17.82,26.17,17.82c2.19,5.4,4.69,11.04,7.09,16.22-8.9,2.82-68.04,23.95-95.38,95.15-21.31,55.49,4.44,110.97,34.82,144.76l-1.63,2.31-26.55,5.1,3.06-15.32s-17.87,5.11-53.11,21.96c-35.23,16.85-49.1,0-49.1,0-2.64-19.4,11.32-46.98,11.32-46.98-91.92,27.58-117.96-2.04-117.96-2.04l2.55-13.79c-35.74-6.13-50.55-23.49-50.55-23.49Z"/>
  <g>
    <g>
      <path class="cls-17" d="m1090.62,168c-33.77-35.46-58.24-40.24-73.4-37.39l-.14-.69s4.37-16.24,21.8-22.36c.01,0,.03-.01.04-.01,9.23-3.22,22.12-3.61,39.95,2.75,42.35,15.09,106.71,73.2,130.95,127.72,5.28,11.88,8.66,23.6,9.48,34.66,0,0,.51,29.11-12.77,42.89l.51,1.26c-7.28,2.91-14.11,6.59-18.89,11.17,0,0,5.61-35.41-.51-45.11,0,0-8.18-4.47-28.14,2.35l-.46-1.33s-7.15-51.57-68.42-115.91Z"/>
      <path class="cls-17" d="m1038.02,105.27s-1.55-7.97,4.9-13.85c.45-.41.94-.81,1.47-1.2,1.39-1.02,3.07-1.94,5.1-2.7,4.4-1.67,10.44-2.6,18.71-2.18.04,0,.08,0,.13.01.5.02,1.02.05,1.55.09,4.93.34,10.61,1.15,17.16,2.54,21.57,4.58,43.78,14.99,63.6,27.8,2.44,1.57,4.84,3.18,7.2,4.82,12.06,8.38,23.03,17.55,32.17,26.65,1.48,1.46,2.9,2.93,4.28,4.39,9.25,9.8,16.19,19.36,19.9,27.59,13.63,30.29-3.97,58.16-4.37,58.79-24.24-54.52-88.6-112.63-130.95-127.72-17.83-6.36-30.72-5.97-39.95-2.75-.01,0-.03.01-.04.01l-.86-2.29Z"/>
      <path class="cls-17" d="m1043.06,82.12c-.13.2-.24.4-.34.62l-1.81-1.18s.02-.53.05-1.27c.08-1.51.24-3.99.46-5.24,1.48-8.43,9.56-31.61,53.62-37.43,3.01-.4,5.92-.65,8.75-.75,5.78-.23,11.2.13,16.25.95,3.86.62,7.51,1.52,10.95,2.66.05.02.09.03.14.05,7.19,2.37,13.45,5.76,18.77,9.7,4.81,3.56,8.85,7.59,12.12,11.76,1.78,2.26,3.33,4.56,4.65,6.86,2.26,3.9,3.86,7.79,4.81,11.4,0,.02,0,.03.01.05.21.82.39,1.62.53,2.41.54,2.82.63,5.42.3,7.67l-2.99.17c-1.6-1.39-3.26-2.73-4.98-4.04-4.52-3.46-9.46-6.6-14.76-9.35-14.03-7.29-30.6-11.8-48.76-11.8-20.11,0-33.46,2.48-42.31,5.79-1.39.52-2.67,1.06-3.85,1.62-1.88.89-3.5,1.81-4.9,2.75-1.47.98-2.69,1.98-3.71,2.96-1.32,1.26-2.28,2.5-3,3.64Z"/>
      <path class="cls-15" d="m1166.67,68.85c-.95-2.21-2.15-4.3-3.54-6.27,1.29.68,2.55,1.39,3.74,2.22-.04,1.39.42,2.84,1.58,4.08,2.21,2.36,2.18,6.32,2.66,9.31.11.69.23,1.38.37,2.06-.95-3.61-2.55-7.5-4.81-11.4Z"/>
      <path class="cls-15" d="m1166.67,68.85c-1.32-2.3-2.87-4.6-4.65-6.86.37.2.74.39,1.11.59,1.39,1.97,2.59,4.06,3.54,6.27Z"/>
      <path class="cls-15" d="m1153.27,52.38c3.66,2.86,7.12,6.29,9.86,10.2-.37-.2-.74-.39-1.11-.59-3.27-4.17-7.31-8.2-12.12-11.76,1.17.62,2.31,1.32,3.37,2.15Z"/>
      <path class="cls-17" d="m1017.22,130.61c15.16-2.85,39.63,1.93,73.4,37.39,61.27,64.34,68.42,115.91,68.42,115.91l.46,1.33c-11.06,3.79-25.75,11.04-44.67,24.45-31.99-135.97-84.93-164.6-116.21-168.76l.08-.6s6.17-7.39,18.52-9.72Z"/>
      <path class="cls-17" d="m1044.39,90.22c-.53.39-1.02.79-1.47,1.2l-.8-.54s-1.02-4.79.6-8.14c.1-.22.21-.42.34-.62.72-1.14,1.68-2.38,3-3.64,1.02-.98,2.24-1.98,3.71-2.96,1.4-.94,3.02-1.86,4.9-2.75,1.18-.56,2.46-1.1,3.85-1.62,8.85-3.31,22.2-5.79,42.31-5.79,18.16,0,34.73,4.51,48.76,11.8,5.3,2.75,10.24,5.89,14.76,9.35,1.72,1.31,3.38,2.65,4.98,4.04,4.79,4.17,9.02,8.69,12.6,13.41,11.66,15.31,16.63,32.77,12.36,47.68-1.38-1.46-2.8-2.93-4.28-4.39-9.14-9.1-20.11-18.27-32.17-26.65-2.36-1.64-4.76-3.25-7.2-4.82-19.82-12.81-42.03-23.22-63.6-27.8-6.55-1.39-12.23-2.2-17.16-2.54-.53-.04-1.05-.07-1.55-.09-.05-.01-.09-.01-.13-.01-8.27-.42-14.31.51-18.71,2.18-2.03.76-3.71,1.68-5.1,2.7Z"/>
      <path class="cls-17" d="m1040.03,80.25s-2.46-3.81-2.8-5.61c-.84-4.42-2-13.68-.01-24.8.97-5.46,2.7-11.37,5.61-17.37.11-.24.23-.49.35-.73.32-.65.66-1.3,1.01-1.95,1.85-3.41,4.35-6.61,7.37-9.46,5.36-5.05,12.33-9,20.09-11.11,15.05-4.1,33.06-1.29,47.95,13.83,3.73,3.77,8.84,10.45,12.08,15.87l-.55,1.61s-.09-.03-.14-.05c-3.44-1.14-7.09-2.04-10.95-2.66-5.05-.82-10.47-1.18-16.25-.95-2.83.1-5.74.35-8.75.75-44.06,5.82-52.14,29-53.62,37.43-.22,1.25-.38,3.73-.46,5.24l-.93-.04Z"/>
      <path class="cls-17" d="m959.99,311.02c4.04,8.24,7.18,16.03,7.53,16.9-3.14,1.29-6.44,2.52-9.9,3.69l-.2-.6c-.26-.33-.53-.67-.83-1.03-.49-.58-1.03-1.19-1.62-1.82-.6-.63-1.24-1.28-1.92-1.96-.59-.59-1.22-1.2-1.87-1.81-.39-.37-.79-.74-1.2-1.12-2.85-2.63-6.13-5.42-9.48-8.15-3.96-3.21-8.04-6.33-11.66-8.94-.12-.1-.25-.19-.37-.27-3.03-2.19-5.72-4-7.75-5.22l.36-.61s2.6-1.4,6.21-3.13c1.72-.83,3.67-1.73,5.68-2.59,4.15-1.79,8.53-3.4,11.6-3.81,4.12-.55,10.44,10.31,15.42,20.47Z"/>
      <path class="cls-17" d="m957.62,331.61c-1.15.39-2.32.77-3.51,1.15l-.6-3.71,1.46-.89c.59.63,1.13,1.24,1.62,1.82.3.36.57.7.83,1.03l.2.6Z"/>
      <path class="cls-17" d="m949.98,323.27l-2.05,1.4-6.76.6-3.06,14.98-37.2,12.6-23.06-24.85,29.45-3.24s8.68-4.34,0-9.19c-8.68-4.85-56.5-9.95-56.5-9.95l6.48-24.43,1,.26s9.26.58,22.16,3.57l1.26.3c11.6,2.77,25.9,7.48,39.02,15.37,2.03,1.22,4.72,3.03,7.75,5.22.12.08.25.17.37.27,3.62,2.61,7.7,5.73,11.66,8.94,3.35,2.73,6.63,5.52,9.48,8.15Z"/>
      <polygon class="cls-17" points="936.06 367.49 926.87 413.79 892.83 378.38 936.06 367.49"/>
      <path class="cls-17" d="m405.01,479.82c.83-.45,50.44-27.57,59.22-27.4,8.85.17,3.75,11.07,3.75,11.07l-22.93,15.83-29.84,20.59s34.04,27.58,40.17,39.15c6.13,11.58-4.76,8.85-4.76,8.85l-53.11-30.29s-10.21,38.8-19.4,51.74c-9.2,12.94-10.9-5.11-10.9-5.11l4.43-51.06s-30.64,13.62-47.66,15.66c-17.02,2.04-5.79-10.21-5.79-10.21l39.15-30.98s-4.67-8.99-9.81-20.09c-2.4-5.18-4.9-10.82-7.09-16.22-2.8-6.94-5.07-13.48-5.91-18.16-2.89-16.11,9.53-6.47,9.53-6.47l36.43,48.34s10.89-42.55,21.44-60.93c1.13-1.97,2.18-3.53,3.16-4.74,8.16-10.13,11.14,3.71,11.14,3.71l-4.42,35.07c19.46-13.42,45.15-22.85,70.19-29.42,1.24.47,3.36-.15,6.09-1.56,43.17-10.61,82.7-12.94,82.7-12.94l-28.26-32.34s-38.08,36.84-54.44,45.28c-2.02.5-4.05,1.02-6.09,1.56-.03,0-.05-.02-.07-.03-8.51-3.57,1.37-13.1,1.37-13.1l34.04-51.07s-46.7-6.53-72.61-13.52c-.54-.15-1.08-.29-1.6-.44-25.54-7.15,2.04-12.59,2.04-12.59l19.13-.88,55.1-2.53s-1.42-7.94-3.02-18.54c-1.53-10.12-3.23-22.66-4-33.03-.49-6.41-.62-11.99-.15-15.66.94-7.3,3.41-7.87,5.79-6.36,2.78,1.76,5.45,6.36,5.45,6.36l17.62,42.75,5.53,13.42s27.91-47.15,37.78-56.17c9.88-9.02,8.85,4.94,8.85,4.94l-16.64,43.45-7.87,20.55s25.32-5.76,44.58-8.27c6.39-.84,12.12-1.31,16.02-1.1,15.66.86,3.23,9.03,3.23,9.03l-.82.42-35.43,17.96,49.7,51.4c10.09-.87,22.34-2.24,35.65-3.92,8.11-1.01,16.6-2.14,25.23-3.34,55.17-7.62,115.89-17.76,115.89-17.76l-12.77-29.86s-24.77,25.01-44.68,34.46c-19.92,9.44-7.66-12.51-7.66-12.51l23.74-40.34s-18.41-2.6-32.71-6.24c-6.25-1.6-11.72-3.39-14.52-5.25-9.19-6.13,0-9.45,0-9.45l.16-.02,64.18-7.38s-.64-8.31-1.25-19.17c-.53-9.31-1.04-20.5-1.11-29.9-.06-7.35.15-13.61.83-17.06,2.55-13.02,10.72-2.12,10.72-2.12l5.58,19.27,12.55,43.36s8.94-19.42,18.35-37.58c3.05-5.9,6.16-11.66,9.03-16.59,3.23-5.57,6.16-10.07,8.36-12.47,10.16-11.08,10.47,3.62,10.47,3.62l-4.37,16.46-3.42,12.91-6.99,26.33-6.48,24.43s47.82,5.1,56.5,9.95c8.68,4.85,0,9.19,0,9.19l-29.45,3.24,23.06,24.85,37.2-12.6,3.06-14.98,6.76-.6,2.05-1.4c.41.38.81.75,1.2,1.12.65.61,1.28,1.22,1.87,1.81.68.68,1.32,1.33,1.92,1.96l-1.46.89.6,3.71c1.19-.38,2.36-.76,3.51-1.15,3.46-1.17,6.76-2.4,9.9-3.69,16.78-6.85,29.24-15.22,38.43-24.24,13.96-13.67,20.39-28.82,23.01-42.35,4.27-22.11-1.66-39.89-1.66-39.89,3.18-3.58,6.13-5.72,8.84-6.86,11.2-4.7,18.05,7.89,18.05,7.89.46,8.44.5,16.4.13,23.9-1.04,20.83-5.33,38.13-13.11,52.54-6.69,12.4-15.96,22.66-27.96,31.19-2.65,1.88-5.43,3.67-8.34,5.39-37.02,21.78-53.53,82.38-53.53,82.38,0,0,19.74-16.41,38.48-27.97,5.24-3.24,10.41-6.1,15.05-8.11,21.19-9.2,12.17,6.46,12.17,6.46l-13,11.78-40.71,36.9s46.22,26.56,57.8,39.49c11.57,12.94-4.09,10.56-4.09,10.56l-76.59-32s-4.43,27.23-9.02,47.32c-4.6,20.08-10.39,0-10.39,0l-12.93-48.87s-39.49,6.31-55.15,4.61,1.02-11.57,1.02-11.57l54.81-19.75-13.41-15.98-22-26.23-26.85,5.45-2.76,10.89-9.19,1.7-3.41-11.4-67.74,13.1-56.55,45.61c.98-.51,32.27-16.71,46.67-19.03,14.64-2.36,6.81,9.17,6.81,9.17l-41.87,32.34s35.4,36.08,43.23,47.32c7.83,11.23-6.12,8.51-6.12,8.51l-55.15-32.37s-11.92,33.73-18.9,48.37c-6.97,14.64-9.7-1.02-9.7-1.02l-4.08-49.36s-49.36,12.59-67.75,12.25c-9.48-.18-10.09-2.89-8.44-5.48,1.53-2.44,5.04-4.76,5.04-4.76l64.34-28.57-7.55-17.01-12.72-28.67c5.07-.45,9.85-.9,14.33-1.35l23.98,29.67,23.43-36.06c1.58-.3,3.06-.59,4.43-.87v10.04l17.72-15.29c-.42.28-3.88,2.38-17.72,5.25v-5.96l-4.43,6.83c-10.41,1.95-25.54,4.18-47.41,6.39l-1.89-2.33-13.62,1.02,1.18,2.66c-16.35,1.45-35.84,2.86-59.05,4.15-127.67,7.09-175.93,53.4-176.67,54.12Zm521.86-66.03l9.19-46.3-43.23,10.89,34.04,35.41Zm-83.74-46.3l30.29-7.92-30.29-26.81v34.73Zm-253.63,35.06l30.99-3.4-46.98-44.94-6.47,3.41,22.46,44.93Z"/>
      <path class="cls-17" d="m850.8,637.36c16.05-49.63-4.21-104.94-33.89-141.56,27.07-65.89,78.13-84.74,78.13-84.74l.38-.32,13.41,15.98-54.81,19.75s-16.68,9.87-1.02,11.57,55.15-4.61,55.15-4.61l12.93,48.87s5.79,20.08,10.39,0c4.59-20.09,9.02-47.32,9.02-47.32l76.59,32s15.66,2.38,4.09-10.56c-11.58-12.93-57.8-39.49-57.8-39.49l40.71-36.9.75.82s96.51,25.53,93.45,142.98c-.49,18.78-3.93,34.98-9.41,48.94-.07.18-.14.36-.21.53-21.15,53.19-71.9,73.82-101.12,81.76-.43.12-.85.23-1.27.34-4.84,1.28-9.05,2.21-12.36,2.87-.91.19-1.76.35-2.53.5-2.32.44-3.98.72-4.85.89-10.21,2.04-63.97,6.29-115.73-42.3Z"/>
      <polygon class="cls-17" points="873.42 359.57 843.13 367.49 843.13 332.76 873.42 359.57"/>
      <path class="cls-17" d="m810.02,340.86l12.77,29.86s-60.72,10.14-115.89,17.76c0,0,9.36-47.26,41.81-72.25,14.3,3.64,32.71,6.24,32.71,6.24l-23.74,40.34s-12.26,21.95,7.66,12.51c19.91-9.45,44.68-34.46,44.68-34.46Z"/>
      <path class="cls-17" d="m734.19,310.98c2.8,1.86,8.27,3.65,14.52,5.25-32.45,24.99-41.81,72.25-41.81,72.25-8.63,1.2-17.12,2.33-25.23,3.34l-.08-.67c-4.59-28.09-49.02-63.15-49.02-63.15l-.82-1.62.82-.42s12.43-8.17-3.23-9.03c-3.9-.21-9.63.26-16.02,1.1-5.04-2.73-9.83-4.85-14.2-6.5l.26-.55,43.41-28.09,11.23,17.19s1.24-.84,3.41-2.21c10.01-6.33,39.87-23.94,60.42-22.89l6.72,10.32,9.62,14.78.16,1.43-.16.02s-9.19,3.32,0,9.45Z"/>
      <path class="cls-17" d="m702.47,413.81l-23.43,36.06-23.98-29.67c21.87-2.21,37-4.44,47.41-6.39Z"/>
      <path class="cls-17" d="m681.59,391.15l.08.67c-13.31,1.68-25.56,3.05-35.65,3.92l-49.7-51.4,35.43-17.96.82,1.62s44.43,35.06,49.02,63.15Z"/>
      <polygon class="cls-17" points="620.49 399.15 589.5 402.55 567.04 357.62 573.51 354.21 620.49 399.15"/>
      <path class="cls-17" d="m599.12,311.53c4.37,1.65,9.16,3.77,14.2,6.5-19.26,2.51-44.58,8.27-44.58,8.27l7.87-20.55.3.12s3.45.27,9.13,1.62c3.58.85,8.04,2.13,13.08,4.04Z"/>
      <path class="cls-17" d="m589.82,499.3c25.64-34.64,57.42-46.93,63.63-49.08l7.55,17.01-64.34,28.57s-3.51,2.32-5.04,4.76l-1.8-1.26Z"/>
      <path class="cls-17" d="m650.96,730.62c-15.28-5.14-34.33-16.57-51.25-33.61-21.93-22.09-40.28-53.6-42.19-93.03-.61-12.47.42-25.73,3.51-39.73,6.04-27.44,16.74-48.66,28.79-64.95l1.8,1.26c-1.65,2.59-1.04,5.3,8.44,5.48,18.39.34,67.75-12.25,67.75-12.25l4.08,49.36s2.73,15.66,9.7,1.02c6.98-14.64,18.9-48.37,18.9-48.37l55.15,32.37s13.95,2.72,6.12-8.51c-7.83-11.24-43.23-47.32-43.23-47.32l41.87-32.34s7.83-11.53-6.81-9.17c-14.4,2.32-45.69,18.52-46.67,19.03l56.55-45.61,67.74-13.1,3.41,11.4,9.19-1.7,2.76-10.89,26.85-5.45,22,26.23-.38.32s-51.06,18.85-78.13,84.74c29.68,36.62,49.94,91.93,33.89,141.56-3.5,10.86-8.74,21.44-16.01,31.5-8.33,11.54-16.87,21.36-25.52,29.68-58.68,56.49-122.26,44.19-158.31,32.08Z"/>
      <path class="cls-17" d="m542.53,371.91l28.26,32.34s-39.53,2.33-82.7,12.94c16.36-8.44,54.44-45.28,54.44-45.28Z"/>
      <path class="cls-17" d="m555.77,604.05c-.35-8.56-1.32-13.75-1.32-13.75,0,0-3.58-72-109.28-110.81l-.12-.17,22.93-15.83s5.1-10.9-3.75-11.07c-8.78-.17-58.39,26.95-59.22,27.4.74-.72,49-47.03,176.67-54.12,23.21-1.29,42.7-2.7,59.05-4.15l12.72,28.67c-6.21,2.15-37.99,14.44-63.63,49.08-12.05,16.29-22.75,37.51-28.79,64.95-3.09,14-4.12,27.26-3.51,39.73l-1.75.07Z"/>
      <path class="cls-17" d="m519.4,324.59l-55.1,2.53c5.42-3.29,25.51-14.86,47.53-20.09,1.51-.36,3.03-.68,4.55-.98,1.6,10.6,3.02,18.54,3.02,18.54Z"/>
      <path class="cls-17" d="m517.34,354.55l-34.04,51.07s-9.88,9.53-1.37,13.1c.02.01.04.02.07.03-25.04,6.57-50.73,16-70.19,29.42l4.42-35.07s-2.98-13.84-11.14-3.71c.49-4.58,3.78-24.7,24.35-51.08,4.3-5.52,9.35-11.3,15.29-17.28,25.91,6.99,72.61,13.52,72.61,13.52Z"/>
      <path class="cls-17" d="m526.15,697.76c-7.71,9.51-17.36,18.63-29.41,26.83-17.47,11.9-34.34,19.84-50.42,24.78-20.29,6.24-39.32,7.7-56.72,6.3-26.83-2.15-49.79-11.11-67.49-19.84-10.74-5.3-23.29-15.18-35.14-28.35-30.38-33.79-56.13-89.27-34.82-144.76,27.34-71.2,86.48-92.33,95.38-95.15,5.14,11.1,9.81,20.09,9.81,20.09l-39.15,30.98s-11.23,12.25,5.79,10.21c17.02-2.04,47.66-15.66,47.66-15.66l-4.43,51.06s1.7,18.05,10.9,5.11c9.19-12.94,19.4-51.74,19.4-51.74l53.11,30.29s10.89,2.73,4.76-8.85c-6.13-11.57-40.17-39.15-40.17-39.15l29.84-20.59.12.17c105.7,38.81,109.28,110.81,109.28,110.81,0,0,.97,5.19,1.32,13.75.81,20.3-1.93,59.56-29.62,93.71Z"/>
    </g>
    <g>
      <path class="cls-9" d="m487.34,311.17s-4.04-13.45,2.77-35.57"/>
      <line class="cls-4" x1="998.62" y1="140.93" x2="998.7" y2="140.33"/>
      <line class="cls-4" x1="1159.04" y1="283.91" x2="1159.5" y2="285.24"/>
      <line class="cls-7" x1="541.17" y1="300.08" x2="541.09" y2="300.11"/>
      <path class="cls-10" d="m1013.25,330.1c3.2,13.49,5.85,27.84,7.84,43.1.03.19.05.39.08.59"/>
      <path class="cls-10" d="m743.27,102.5c3.42-1.39,7.77-2.8,13.01-3.79,16.14-3.07,40.77-2.31,73.4,14.14,5.34,2.69,11,5.56,16.9,8.65,53.05,27.9,125.21,74.56,159.37,182.18"/>
      <path class="cls-10" d="m408.4,336.51v-.05c.06-1.94,2.18-59.53,39.83-79.1,0,0-11.74-35.74,40.34-62.3,0,0,.25-.98.82-2.68,3.51-10.45,19.21-47.94,64.03-48.38,0,0,18.39-49.02,83.24-33.19,0,0,51.47-49.1,96.89-3.28l.13.13s3.2-2.55,9.5-5.13"/>
      <path class="cls-11" d="m1041.21,298.91c3.01,11.33,5.7,23.49,8.04,36.58"/>
      <path class="cls-11" d="m846.57,121.51h.01c.81-.42,37.21-18.87,84.89,16.18,2.63,1.93,5.3,4.03,8,6.31,37.43,31.56,68.28,63.66,89.49,117.33"/>
      <path class="cls-6" d="m1077.85,311.54c.02.18.04.4.08.66"/>
      <path class="cls-6" d="m1077.79,311.01s0,.08,0,.14"/>
      <path class="cls-6" d="m1077.78,310.96s-.01-.08-.01-.08"/>
      <path class="cls-6" d="m1077.87,311.63c-.03-.27-.06-.49-.08-.62,0-.02,0-.03-.01-.05"/>
      <path class="cls-6" d="m1078.09,313.28c-.06-.42-.12-.91-.18-1.35"/>
      <path class="cls-6" d="m1078.19,314.09s.01.09.02.13v.02"/>
      <path class="cls-6" d="m1078.19,314.09c-.02-.21-.05-.43-.08-.64"/>
      <path class="cls-6" d="m1077.91,311.93c.07.45.13.91.18,1.35.01.06.01.11.02.17"/>
      <path class="cls-6" d="m1077.91,311.93v-.03"/>
      <path class="cls-11" d="m1054.32,246.37c12.03,23.35,20.7,46.11,23.48,64.78.01.08.02.15.03.23.01.05.02.11.02.16.01.03.02.06.02.09.02.09.03.18.04.27"/>
      <path class="cls-11" d="m973.26,142.7c9.2,4.87,19.28,12.77,29.53,25.3,11.62,14.21,23.04,30.15,33.35,46.58"/>
      <path class="cls-11" d="m931.47,137.69s17.96-7.61,41.78,5.01"/>
      <path class="cls-9" d="m973.25,142.7h.01c.39-.15,10.4-3.76,25.36-1.77,31.28,4.16,84.22,32.79,116.21,168.76l.3,1.29"/>
      <path class="cls-9" d="m998.7,140.33s6.17-7.39,18.52-9.72c15.16-2.85,39.63,1.93,73.4,37.39,61.27,64.34,68.42,115.91,68.42,115.91"/>
      <path class="cls-8" d="m1017.08,129.92s4.37-16.24,21.8-22.36c.01,0,.03-.01.04-.01,9.23-3.22,22.12-3.61,39.95,2.75,42.35,15.09,106.71,73.2,130.95,127.72,5.28,11.88,8.66,23.6,9.48,34.66,0,0,.51,29.11-12.77,42.89"/>
      <path class="cls-8" d="m1038.02,105.27s-1.55-7.97,4.9-13.85c.45-.41.94-.81,1.47-1.2,1.39-1.02,3.07-1.94,5.1-2.7,4.4-1.67,10.44-2.6,18.71-2.18.04,0,.08,0,.13.01.5.02,1.02.05,1.55.09,4.93.34,10.61,1.15,17.16,2.54,21.57,4.58,43.78,14.99,63.6,27.8,2.44,1.57,4.84,3.18,7.2,4.82,12.06,8.38,23.03,17.55,32.17,26.65,1.48,1.46,2.9,2.93,4.28,4.39,9.25,9.8,16.19,19.36,19.9,27.59,13.63,30.29-3.97,58.16-4.37,58.79h-.01"/>
      <path class="cls-8" d="m1042.12,90.88s-1.02-4.79.6-8.14c.1-.22.21-.42.34-.62.72-1.14,1.68-2.38,3-3.64,1.02-.98,2.24-1.98,3.71-2.96,1.4-.94,3.02-1.86,4.9-2.75,1.18-.56,2.46-1.1,3.85-1.62,8.85-3.31,22.2-5.79,42.31-5.79,18.16,0,34.73,4.51,48.76,11.8,5.3,2.75,10.24,5.89,14.76,9.35,1.72,1.31,3.38,2.65,4.98,4.04,4.79,4.17,9.02,8.69,12.6,13.41,11.66,15.31,16.63,32.77,12.36,47.68"/>
      <path class="cls-8" d="m1040.91,81.56s.02-.53.05-1.27c.08-1.51.24-3.99.46-5.24,1.48-8.43,9.56-31.61,53.62-37.43,3.01-.4,5.92-.65,8.75-.75,5.78-.23,11.2.13,16.25.95,3.86.62,7.51,1.52,10.95,2.66.05.02.09.03.14.05,7.19,2.37,13.45,5.76,18.77,9.7,4.81,3.56,8.85,7.59,12.12,11.76,1.78,2.26,3.33,4.56,4.65,6.86,2.26,3.9,3.86,7.79,4.81,11.4,0,.02,0,.03.01.05.21.82.39,1.62.53,2.41.54,2.82.63,5.42.3,7.67"/>
      <path class="cls-8" d="m1040.03,80.25s-2.46-3.81-2.8-5.61c-.84-4.42-2-13.68-.01-24.8.97-5.46,2.7-11.37,5.61-17.37.11-.24.23-.49.35-.73.32-.65.66-1.3,1.01-1.95,1.85-3.41,4.35-6.61,7.37-9.46,5.36-5.05,12.33-9,20.09-11.11,15.05-4.1,33.06-1.29,47.95,13.83,3.73,3.77,8.84,10.45,12.08,15.87"/>
      <path class="cls-8" d="m1071.21,7.51s-41.87-16.53-56.51,17.51c-9.05,21.03-3.16,39.34,5.39,47.68,5.29,5.17,11.6,6.53,16.03,2.36"/>
      <path class="cls-8" d="m1014.7,25.02s-21.4-11.08-29.11,21.61c-.07.31-.14.62-.21.94-.51,2.28-.95,4.77-1.32,7.48-2.64,19.57,3.48,27.51,11.44,29.2,9.49,2.02,21.59-4.87,24.59-11.55"/>
      <path class="cls-8" d="m983.44,47.15s-24.57,27.57-18.1,46.29c6.47,18.73,21.11,6.4,29.96-8.2"/>
      <path class="cls-8" d="m1037.86,129.92s36.82-23.33,90.75,31.71c53.92,55.05,77.41,138.79,77.41,149.35"/>
      <path class="cls-10" d="m469.34,318.13s1.86-11.42.42-24.61c-1.53-13.84-6.71-29.62-21.53-36.16"/>
      <path class="cls-10" d="m472.06,293.27s31.53-20.39,29.6-60.25c-.57-11.84-4.1-25.39-12.27-40.64"/>
      <path class="cls-10" d="m501.75,233.02s13.38,2.96,26.53-7.12c6.04-4.62,12.03-12.01,16.65-23.7,5.21-13.18,8.67-31.84,8.49-58.2"/>
      <path class="cls-10" d="m589.5,196.59c5.12-3.82,10.15-9.15,14.75-16.48.65-1.04,1.3-2.13,1.94-3.26,23.83-42.21,30.47-66.04,30.47-66.04"/>
      <path class="cls-10" d="m544.93,202.2s23.09,10.4,44.54-5.58"/>
      <path class="cls-10" d="m606.53,181.96s55.15,2.72,80.68-27.58c19.4-23.03,34.85-38.96,46.34-46.85,3.6-2.47,6.81-4.14,9.63-5l.09-.03"/>
      <path class="cls-10" d="m873.42,187.06c-5.13-47.29-30.34-58.07-61.9-50.11-14.55,3.67-30.45,11.32-46.35,21.21-.89.56-1.78,1.09-2.66,1.6-5.04,2.96-9.85,5.25-14.42,6.97-3.72,1.4-7.28,2.43-10.68,3.14-32.66,6.86-50.2-15.49-50.2-15.49"/>
      <path class="cls-10" d="m756.28,98.71s46-.65,54.85,36.7"/>
      <path class="cls-10" d="m763.13,160.81s14.96,31.26,48.36,36.59c1.94.32,3.95.54,6.03.67,3.24.19,6.64.14,10.19-.2,4.03-.37,8.26-1.12,12.69-2.3,53.79-14.3,84.43-2.38,86.47,50.73"/>
      <path class="cls-10" d="m853.23,234.34c-13.22-9.78-17.93-23.47-25.52-36.47"/>
      <path class="cls-10" d="m962.62,310.98s11.23-62.64-52.77-62.98c-3.11-.02-6.08-.09-8.91-.23-14.02-.66-24.78-2.73-33.25-5.82"/>
      <path class="cls-10" d="m405.09,409.39c.49-4.58,3.78-24.7,24.35-51.08,4.3-5.52,9.35-11.3,15.29-17.28"/>
      <path class="cls-10" d="m464.3,327.12c5.42-3.29,25.51-14.86,47.53-20.09,1.51-.36,3.03-.68,4.55-.98"/>
      <path class="cls-9" d="m528.29,225.88s0,.01-.01.02c-.3.57-5.55,10.72-10.26,25.1"/>
      <path class="cls-9" d="m589.47,196.62c-1.46,1.34-47.97,44.49-48.3,103.46"/>
      <path class="cls-10" d="m589.5,196.59l-.03.03"/>
      <path class="cls-9" d="m586.11,307.23s.01-.03.02-.08c.76-2.79,22.63-80.46,110.37-120.96,12.41-5.73,26.14-10.71,41.31-14.64,1.85-.48,3.72-.94,5.62-1.39.86-.81,2.88-1.76,4.98-2.6,3.08-1.22,6.35-2.23,6.46-2.25"/>
      <path class="cls-9" d="m658.16,293.52s-.11.38-.26.89c-.29.97-.73,2.41-.84,2.41-.03,0-.03-.08-.01-.28.34-3.13,1.6-9.3,4.76-17.07,0-.04.02-.07.04-.1,11.28-27.73,46.55-75.75,149.28-79.66,2.04-.09,4.11-.15,6.21-.19"/>
      <path class="cls-9" d="m864.27,254.86c3.12.44,6.2.76,9.22.89,10.31.46,19.85-1.23,27.42-7.42"/>
      <path class="cls-9" d="m813.3,245.15c6.28.7,12.7,1.94,18.93,3.18,3.89.78,7.91,1.69,11.97,2.6"/>
      <path class="cls-9" d="m724.74,285.19c1.79-.26,34.47,2.3,46.22-21.96.72-1.48,1.49-2.86,2.32-4.13,5.67-8.81,13.73-12.76,22.89-14.04"/>
      <path class="cls-9" d="m773.27,259.09h.01c.52.46,17.18,14.89,23.72,15.89"/>
      <path class="cls-9" d="m873.42,257.1s7.83,18.64,8.86,25.79"/>
      <path class="cls-11" d="m599.38,310.98l43.41-28.09,11.23,17.19s1.24-.84,3.41-2.21c10.01-6.33,39.87-23.94,60.42-22.89l6.72,10.32,9.62,14.78"/>
      <line class="cls-10" x1="314.27" y1="433.54" x2="340.44" y2="451.35"/>
      <path class="cls-10" d="m429.44,358.31l-21.04-21.85-3.4-3.53-6.81,7.66s-20.43-29.61-81.19-55.4l-3.58,14.89s-35.23-36.59-66.38-28.93c0,0-16.85,51.06,49.02,133.27l-3.57,14.3,21.77,14.81"/>
      <path class="cls-10" d="m314.27,433.54h-.01c-.66-.2-24.03-7.14-39.64-5.63l-6.13,8.17s-31.66-17.36-70.47-17.36l-3.06,12.11s-39.83-12.11-66.9,21.59c0,0,29.62,32.68,66.9,49.54,0,0-117.45,9.7-138.39,48.51,0,0,7.66,13.78,18.9,19.4,0,0-58.22,21.45-70.47,65.36,0,0,14.81,17.36,50.55,23.49l-2.55,13.79s26.04,29.62,117.96,2.04c0,0-13.96,27.58-11.32,46.98,0,0,13.87,16.85,49.1,0,35.24-16.85,53.11-21.96,53.11-21.96l-3.06,15.32,26.55-5.1"/>
      <path class="cls-10" d="m389.51,756.76l8.68,14.3s22.98-3.57,48.51-20.42"/>
      <path class="cls-10" d="m528.12,698.96s-6.13,42.38,19.91,63.32c0,0,30.64-9.19,50.05-63.32"/>
      <path class="cls-10" d="m811.3,698.55c1.53.51,34.21,36.26,70.46,31.66,0,0,8.17-7.15,5.62-28.08,0,0,50.55,33.19,96,16.34,0,0,1.53-28.09-9.19-38.81"/>
      <path class="cls-10" d="m986.45,676.08l.14.11,44.79,37.68,7.66-6.64s48.51,31.15,93.45,35.24v-17.88s38.3,28.6,72.51,17.88c0,0,.51-54.64-82.21-120.51l1.02-14.3-24.76-10.11-10.39-4.25"/>
      <path class="cls-10" d="m1099.05,597.54s38.03,2.46,47.23-12.35c0,0,46.98,10.72,73.02,0l-3.58-10.72s56.68-6.13,58.21-37.79c0,0-17.87-20.43-73.02-32.68,0,0,108.77-33.7,122.05-76.6l-19.41-19.91s53.62-33.36,50.56-79.49c0,0-17.37-11.41-54.64-8.85l-3.58-19.07s-32.68-5.78-51.06,7.15c0,0-20.19,2.56-37.79,9.6-7.28,2.91-14.11,6.59-18.89,11.17,0,0,5.61-35.41-.51-45.11,0,0-8.18-4.47-28.14,2.35-11.06,3.79-25.75,11.04-44.67,24.45-7.26,5.14-15.15,11.2-23.7,18.31v-18.74s-5.4,1.25-12.92,4.96c-8.04,3.95-18.52,10.7-27.43,21.7-3.57,4.42-6.89,9.52-9.7,15.4-5.95,12.46-13.19,18.82-19.99,21.88-11.86,5.34-22.39.59-22.39.59l-9.19,14.8"/>
      <path class="cls-10" d="m576.91,305.87s3.45.27,9.13,1.62c3.58.85,8.04,2.13,13.08,4.04,4.37,1.65,9.16,3.77,14.2,6.5"/>
      <path class="cls-10" d="m632.57,328s44.43,35.06,49.02,63.15"/>
      <path class="cls-10" d="m347.53,467.57c-8.9,2.82-68.04,23.95-95.38,95.15-21.31,55.49,4.44,110.97,34.82,144.76,11.85,13.17,24.4,23.05,35.14,28.35,17.7,8.73,40.66,17.69,67.49,19.84,17.4,1.4,36.43-.06,56.72-6.3,16.08-4.94,32.95-12.88,50.42-24.78,12.05-8.2,21.7-17.32,29.41-26.83,27.69-34.15,30.43-73.41,29.62-93.71-.35-8.56-1.32-13.75-1.32-13.75,0,0-3.58-72-109.28-110.81"/>
      <path class="cls-10" d="m653.45,450.22c-6.21,2.15-37.99,14.44-63.63,49.08-12.05,16.29-22.75,37.51-28.79,64.95-3.09,14-4.12,27.26-3.51,39.73,1.91,39.43,20.26,70.94,42.19,93.03,16.92,17.04,35.97,28.47,51.25,33.61,36.05,12.11,99.63,24.41,158.31-32.08,8.65-8.32,17.19-18.14,25.52-29.68,7.27-10.06,12.51-20.64,16.01-31.5,16.05-49.63-4.21-104.94-33.89-141.56-21.78-26.88-48.64-43.7-69.95-40.82"/>
      <path class="cls-10" d="m895.04,411.06s-51.06,18.85-78.13,84.74"/>
      <path class="cls-10" d="m1004.83,400.85s96.51,25.53,93.45,142.98c-.49,18.78-3.93,34.98-9.41,48.94-.07.18-.14.36-.21.53-21.15,53.19-71.9,73.82-101.12,81.76-.43.12-.85.23-1.27.34-4.84,1.28-9.05,2.21-12.36,2.87-.91.19-1.76.35-2.53.5-2.32.44-3.98.72-4.85.89-10.21,2.04-63.97,6.29-115.73-42.3"/>
      <path class="cls-10" d="m810.02,340.86l12.77,29.86s-60.72,10.14-115.89,17.76c-8.63,1.2-17.12,2.33-25.23,3.34-13.31,1.68-25.56,3.05-35.65,3.92l-49.7-51.4,35.43-17.96.82-.42s12.43-8.17-3.23-9.03c-3.9-.21-9.63.26-16.02,1.1-19.26,2.51-44.58,8.27-44.58,8.27l7.87-20.55,16.64-43.45s1.03-13.96-8.85-4.94c-9.87,9.02-37.78,56.17-37.78,56.17l-5.53-13.42-17.62-42.75s-2.67-4.6-5.45-6.36c-2.38-1.51-4.85-.94-5.79,6.36-.47,3.67-.34,9.25.15,15.66.77,10.37,2.47,22.91,4,33.03,1.6,10.6,3.02,18.54,3.02,18.54l-55.1,2.53-19.13.88s-27.58,5.44-2.04,12.59c.52.15,1.06.29,1.6.44,25.91,6.99,72.61,13.52,72.61,13.52l-34.04,51.07s-9.88,9.53-1.37,13.1c.02.01.04.02.07.03,1.24.47,3.36-.15,6.09-1.56"/>
      <path class="cls-10" d="m947.93,324.67l-6.76.6-3.06,14.98-37.2,12.6-23.06-24.85,29.45-3.24s8.68-4.34,0-9.19c-8.68-4.85-56.5-9.95-56.5-9.95l6.48-24.43,6.99-26.33,3.42-12.91,4.37-16.46s-.31-14.7-10.47-3.62c-2.2,2.4-5.13,6.9-8.36,12.47-2.87,4.93-5.98,10.69-9.03,16.59-9.41,18.16-18.35,37.58-18.35,37.58l-12.55-43.36-5.58-19.27s-8.17-10.9-10.72,2.12c-.68,3.45-.89,9.71-.83,17.06.07,9.4.58,20.59,1.11,29.9.61,10.86,1.25,19.17,1.25,19.17l-64.18,7.38-.16.02s-9.19,3.32,0,9.45c2.8,1.86,8.27,3.65,14.52,5.25,14.3,3.64,32.71,6.24,32.71,6.24l-23.74,40.34s-12.26,21.95,7.66,12.51c19.91-9.45,44.68-34.46,44.68-34.46h0"/>
      <path class="cls-10" d="m706.92,449.86l56.55-45.61,67.74-13.1,3.41,11.4,9.19-1.7,2.76-10.89,26.85-5.45,22,26.23,13.41,15.98-54.81,19.75s-16.68,9.87-1.02,11.57,55.15-4.61,55.15-4.61l12.93,48.87s5.79,20.08,10.39,0c4.59-20.09,9.02-47.32,9.02-47.32l76.59,32s15.66,2.38,4.09-10.56c-11.58-12.93-57.8-39.49-57.8-39.49l40.71-36.9,13-11.78s9.02-15.66-12.17-6.46c-4.64,2.01-9.81,4.87-15.05,8.11-18.74,11.56-38.48,27.97-38.48,27.97,0,0,16.51-60.6,53.53-82.38,2.91-1.72,5.69-3.51,8.34-5.39,12-8.53,21.27-18.79,27.96-31.19,7.78-14.41,12.07-31.71,13.11-52.54.37-7.5.33-15.46-.13-23.9,0,0-6.85-12.59-18.05-7.89-2.71,1.14-5.66,3.28-8.84,6.86,0,0,5.93,17.78,1.66,39.89-2.62,13.53-9.05,28.68-23.01,42.35-9.19,9.02-21.65,17.39-38.43,24.24-3.14,1.29-6.44,2.52-9.9,3.69-1.15.39-2.32.77-3.51,1.15l-.6-3.71"/>
      <path class="cls-10" d="m724.66,407.66s-.01,0-.04.03l-17.72,15.29v-16l-4.43,6.83-23.43,36.06-23.98-29.67-1.89-2.33-13.62,1.02,1.18,2.66,12.72,28.67,7.55,17.01-64.34,28.57s-3.51,2.32-5.04,4.76c-1.65,2.59-1.04,5.3,8.44,5.48,18.39.34,67.75-12.25,67.75-12.25l4.08,49.36s2.73,15.66,9.7,1.02c6.98-14.64,18.9-48.37,18.9-48.37l55.15,32.37s13.95,2.72,6.12-8.51c-7.83-11.24-43.23-47.32-43.23-47.32l41.87-32.34s7.83-11.53-6.81-9.17c-14.4,2.32-45.69,18.52-46.67,19.03-.01.01-.02.01-.02.01"/>
      <path class="cls-10" d="m405.01,479.82c.74-.72,49-47.03,176.67-54.12,23.21-1.29,42.7-2.7,59.05-4.15,5.07-.45,9.85-.9,14.33-1.35,21.87-2.21,37-4.44,47.41-6.39,1.58-.3,3.06-.59,4.43-.87,13.84-2.87,17.3-4.97,17.72-5.25"/>
      <path class="cls-10" d="m488.09,417.19c-2.02.5-4.05,1.02-6.09,1.56-25.04,6.57-50.73,16-70.19,29.42l4.42-35.07s-2.98-13.84-11.14-3.71c-.98,1.21-2.03,2.77-3.16,4.74-10.55,18.38-21.44,60.93-21.44,60.93l-36.43-48.34s-12.42-9.64-9.53,6.47c.84,4.68,3.11,11.22,5.91,18.16,2.19,5.4,4.69,11.04,7.09,16.22,5.14,11.1,9.81,20.09,9.81,20.09l-39.15,30.98s-11.23,12.25,5.79,10.21c17.02-2.04,47.66-15.66,47.66-15.66l-4.43,51.06s1.7,18.05,10.9,5.11c9.19-12.94,19.4-51.74,19.4-51.74l53.11,30.29s10.89,2.73,4.76-8.85c-6.13-11.57-40.17-39.15-40.17-39.15l29.84-20.59,22.93-15.83s5.1-10.9-3.75-11.07c-8.78-.17-58.39,26.95-59.22,27.4h-.01"/>
      <path class="cls-10" d="m542.53,371.91l28.26,32.34s-39.53,2.33-82.7,12.94c16.36-8.44,54.44-45.28,54.44-45.28Z"/>
      <polygon class="cls-10" points="873.42 359.57 843.13 332.76 843.13 367.49 873.42 359.57"/>
      <path class="cls-10" d="m706.9,388.48s9.36-47.26,41.81-72.25"/>
      <polygon class="cls-10" points="589.5 402.55 620.49 399.15 573.51 354.21 567.04 357.62 589.5 402.55"/>
      <polygon class="cls-10" points="892.83 378.38 936.06 367.49 926.87 413.79 892.83 378.38"/>
      <path class="cls-11" d="m921.08,300.08s2.6-1.4,6.21-3.13c1.72-.83,3.67-1.73,5.68-2.59,4.15-1.79,8.53-3.4,11.6-3.81,4.12-.55,10.44,10.31,15.42,20.47,4.04,8.24,7.18,16.03,7.53,16.9"/>
      <path class="cls-10" d="m858.28,281.45s9.26.58,22.16,3.57l1.26.3c11.6,2.77,25.9,7.48,39.02,15.37,2.03,1.22,4.72,3.03,7.75,5.22.12.08.25.17.37.27,3.62,2.61,7.7,5.73,11.66,8.94,3.35,2.73,6.63,5.52,9.48,8.15.41.38.81.75,1.2,1.12.65.61,1.28,1.22,1.87,1.81.68.68,1.32,1.33,1.92,1.96.59.63,1.13,1.24,1.62,1.82.3.36.57.7.83,1.03"/>
    </g>
  </g>
</svg>